<?xml version="1.0" encoding="UTF-8" standalone="no"?>
<svg
   xmlns:dc="http://purl.org/dc/elements/1.1/"
   xmlns:cc="http://creativecommons.org/ns#"
   xmlns:rdf="http://www.w3.org/1999/02/22-rdf-syntax-ns#"
   xmlns:svg="http://www.w3.org/2000/svg"
   xmlns="http://www.w3.org/2000/svg"
   xmlns:sodipodi="http://sodipodi.sourceforge.net/DTD/sodipodi-0.dtd"
   xmlns:inkscape="http://www.inkscape.org/namespaces/inkscape"
   version="1.1"
   id="svg2"
   xml:space="preserve"
   width="666.66669"
   height="496.81332"
   viewBox="0 0 666.66669 496.81332"
   sodipodi:docname="3556939.eps"><metadata
     id="metadata8"><rdf:RDF><cc:Work
         rdf:about=""><dc:format>image/svg+xml</dc:format><dc:type
           rdf:resource="http://purl.org/dc/dcmitype/StillImage" /></cc:Work></rdf:RDF></metadata><defs
     id="defs6" /><sodipodi:namedview
     pagecolor="#ffffff"
     bordercolor="#666666"
     borderopacity="1"
     objecttolerance="10"
     gridtolerance="10"
     guidetolerance="10"
     inkscape:pageopacity="0"
     inkscape:pageshadow="2"
     inkscape:window-width="640"
     inkscape:window-height="480"
     id="namedview4" /><g
     id="g10"
     inkscape:groupmode="layer"
     inkscape:label="ink_ext_XXXXXX"
     transform="matrix(1.3333333,0,0,-1.3333333,0,496.81333)"><g
       id="g12"
       transform="scale(0.1)"><path
         d="M 5000,449.129 H 0 v 2.5 h 5000 v -2.5"
         style="fill:#e7e8e5;fill-opacity:1;fill-rule:nonzero;stroke:none"
         id="path14" /><path
         d="m 4297.08,381.039 h -975.97 v 2.5 h 975.97 v -2.5"
         style="fill:#e7e8e5;fill-opacity:1;fill-rule:nonzero;stroke:none"
         id="path16" /><path
         d="m 2890,325.762 h 466.67 v -2.5 H 2890 v 2.5"
         style="fill:#e7e8e5;fill-opacity:1;fill-rule:nonzero;stroke:none"
         id="path18" /><path
         d="m 4499.01,288.172 h -191.92 v 2.5 h 191.92 v -2.5"
         style="fill:#e7e8e5;fill-opacity:1;fill-rule:nonzero;stroke:none"
         id="path20" /><path
         d="m 2190,322.012 h -925.27 v 2.5 H 2190 v -2.5"
         style="fill:#e7e8e5;fill-opacity:1;fill-rule:nonzero;stroke:none"
         id="path22" /><path
         d="M 1175.7,322.012 H 976.664 v 2.5 H 1175.7 v -2.5"
         style="fill:#e7e8e5;fill-opacity:1;fill-rule:nonzero;stroke:none"
         id="path24" /><path
         d="M 906.543,364.23 H 577.926 v 2.5 h 328.617 v -2.5"
         style="fill:#e7e8e5;fill-opacity:1;fill-rule:nonzero;stroke:none"
         id="path26" /><path
         d="m 439.148,3723.59 c -30.093,0 -54.578,-24.49 -54.578,-54.57 V 954.699 c 0,-30.097 24.485,-54.578 54.578,-54.578 H 2370.14 c 30.08,0 54.57,24.481 54.57,54.578 V 3669.02 c 0,30.08 -24.49,54.57 -54.57,54.57 z M 2370.14,897.621 H 439.148 c -31.472,0 -57.078,25.598 -57.078,57.078 V 3669.02 c 0,31.46 25.606,57.07 57.078,57.07 H 2370.14 c 31.46,0 57.07,-25.61 57.07,-57.07 V 954.699 c 0,-31.48 -25.61,-57.078 -57.07,-57.078"
         style="fill:#e7e8e5;fill-opacity:1;fill-rule:nonzero;stroke:none"
         id="path28" /><path
         d="m 2602.12,3723.59 c -30.09,0 -54.57,-24.49 -54.57,-54.57 V 954.699 c 0,-30.097 24.48,-54.578 54.57,-54.578 h 1930.99 c 30.09,0 54.58,24.481 54.58,54.578 V 3669.02 c 0,30.08 -24.49,54.57 -54.58,54.57 z M 4533.11,897.621 H 2602.12 c -31.47,0 -57.07,25.598 -57.07,57.078 V 3669.02 c 0,31.46 25.6,57.07 57.07,57.07 h 1930.99 c 31.47,0 57.08,-25.61 57.08,-57.07 V 954.699 c 0,-31.48 -25.61,-57.078 -57.08,-57.078"
         style="fill:#e7e8e5;fill-opacity:1;fill-rule:nonzero;stroke:none"
         id="path30" /><path
         d="M 3910.73,543.672 H 890.336 L 710.23,2592.51 H 3730.62 L 3910.73,543.672"
         style="fill:#ededeb;fill-opacity:1;fill-rule:nonzero;stroke:none"
         id="path32" /><path
         d="M 836.969,478.41 890.336,543.672 710.23,2592.51 656.949,2526.25 836.969,478.41"
         style="fill:#dadbd8;fill-opacity:1;fill-rule:nonzero;stroke:none"
         id="path34" /><path
         d="M 930.254,621.461 764.34,2508.76 c -1.746,19.89 13.926,37 33.887,37 H 3656.82 c 17.63,0 32.34,-13.47 33.89,-31.04 L 3856.62,627.41 c 1.74,-19.879 -13.92,-36.988 -33.89,-36.988 H 964.141 c -17.637,0 -32.344,13.476 -33.887,31.039"
         style="fill:#fafaf9;fill-opacity:1;fill-rule:nonzero;stroke:none"
         id="path36" /><path
         d="M 1314.86,543.672 H 859.789 l -32.184,-92.043 h 455.075 l 32.18,92.043"
         style="fill:#dadbd8;fill-opacity:1;fill-rule:nonzero;stroke:none"
         id="path38" /><path
         d="M 1314.86,543.672 H 4307.09 L 4274.9,451.629 H 1282.68 l 32.18,92.043"
         style="fill:#f3f2f1;fill-opacity:1;fill-rule:nonzero;stroke:none"
         id="path40" /><path
         d="m 2547.02,543.672 h 573.58 l -6.17,-60.262 h -573.58 l 6.17,60.262"
         style="fill:#dadbd8;fill-opacity:1;fill-rule:nonzero;stroke:none"
         id="path42" /><path
         d="m 3416.17,2726.97 h 724.7 c 60.05,-397.56 -217.68,-724.69 -615.24,-724.69 -127.2,0 -257.24,33.48 -377.01,97.09 l 267.55,627.6"
         style="fill:#dadbd8;fill-opacity:1;fill-rule:nonzero;stroke:none"
         id="path44" /><path
         d="m 3416.17,2726.97 381.97,555.15 c 91.34,-68.02 169.36,-152.97 228.57,-248.88 59.2,-95.9 98.17,-200.45 114.16,-306.27 h -724.7"
         style="fill:#e7e8e5;fill-opacity:1;fill-rule:nonzero;stroke:none"
         id="path46" /><path
         d="m 3416.17,2726.97 -109.47,724.7 c 84.54,0 170.66,-14.79 254.47,-43.7 83.8,-28.92 164.01,-71.51 236.97,-125.85 l -381.97,-555.15"
         style="fill:#e2e2e0;fill-opacity:1;fill-rule:nonzero;stroke:none"
         id="path48" /><path
         d="m 3416.17,2726.97 -267.55,-627.6 c -243.47,129.29 -418.09,369.02 -457.15,627.6 -60.04,397.56 217.68,724.7 615.23,724.7 l 109.47,-724.7"
         style="fill:#ededeb;fill-opacity:1;fill-rule:nonzero;stroke:none"
         id="path50" /><path
         d="m 2521.55,1433.72 h 642.85 c 8.49,-56.18 9.57,-112.12 3.23,-166.39 -6.35,-54.26 -20.07,-106.38 -40.8,-155.03 l -605.28,321.42"
         style="fill:#e7e8e5;fill-opacity:1;fill-rule:nonzero;stroke:none"
         id="path52" /><path
         d="m 2521.55,1433.72 16,633.08 c 152.77,-26.23 299.43,-104.11 414.03,-219.86 114.61,-115.76 190,-262.12 212.82,-413.22 h -642.85"
         style="fill:#dadbd8;fill-opacity:1;fill-rule:nonzero;stroke:none"
         id="path54" /><path
         d="m 2521.55,1433.72 -570.87,-219.87 c -36.3,70.47 -60.66,144.88 -71.98,219.87 -53.27,352.66 193.09,642.84 545.75,642.84 37.42,0 75.27,-3.26 113.1,-9.76 l -16,-633.08"
         style="fill:#ededeb;fill-opacity:1;fill-rule:nonzero;stroke:none"
         id="path56" /><path
         d="m 2521.55,1433.72 605.28,-321.42 c -84.69,-198.659 -278.8,-321.429 -508.18,-321.429 -269.62,0 -537.49,169.617 -667.97,422.979 l 570.87,219.87"
         style="fill:#ffffff;fill-opacity:1;fill-rule:nonzero;stroke:none"
         id="path58" /><path
         d="M 4438.89,113.23 C 4438.89,50.6914 3570.83,0 2500,0 1429.18,0 561.109,50.6914 561.109,113.23 c 0,62.54 868.071,113.239 1938.891,113.239 1070.83,0 1938.89,-50.699 1938.89,-113.239"
         style="fill:#f3f2f1;fill-opacity:1;fill-rule:nonzero;stroke:none"
         id="path60" /><path
         d="M 2405.85,1881.75 H 1505.1 c -57.17,0 -107.74,46.77 -112.39,103.92 l -45.1,553.86 c -4.65,57.17 38.31,103.94 95.48,103.94 h 900.75 c 57.16,0 107.74,-46.77 112.39,-103.94 l 45.09,-553.86 c 4.66,-57.15 -38.31,-103.92 -95.47,-103.92"
         style="fill:#ffffff;fill-opacity:1;fill-rule:nonzero;stroke:none"
         id="path62" /><path
         d="m 1443.09,2639.14 c -26.36,0 -50.38,-10.31 -67.63,-29.01 -17.33,-18.81 -25.69,-43.75 -23.53,-70.25 l 45.09,-553.85 c 4.49,-55.11 52.97,-99.95 108.08,-99.95 h 900.75 c 26.36,0 50.38,10.31 67.62,29.01 17.34,18.81 25.7,43.75 23.54,70.23 l -45.1,553.86 c -4.48,55.12 -52.96,99.96 -108.07,99.96 z m 962.76,-761.72 H 1505.1 c -59.51,0 -111.87,48.4 -116.71,107.9 l -45.09,553.86 c -2.36,28.94 6.8,56.21 25.8,76.82 18.9,20.5 45.18,31.79 73.99,31.79 h 900.75 c 59.51,0 111.86,-48.4 116.71,-107.91 l 45.09,-553.85 c 2.35,-28.93 -6.81,-56.2 -25.8,-76.81 -18.91,-20.51 -45.18,-31.8 -73.99,-31.8"
         style="fill:#406fbf;fill-opacity:1;fill-rule:nonzero;stroke:none"
         id="path64" /><path
         d="m 2161.4,2043.46 c -35.32,-38.46 -80.97,-66.09 -132.39,-80.21 l -14.91,42.7 c 110.9,30.32 185.98,133.73 175.97,256.63 -5.97,73.36 -41.09,139.79 -93.07,187.86 l 28.72,31.27 c 130.01,-120.22 146.11,-318.04 35.68,-438.25"
         style="fill:#dadbd8;fill-opacity:1;fill-rule:nonzero;stroke:none"
         id="path66" /><path
         d="M 2125.72,2481.71 2097,2450.44 c -51.98,48.07 -120.83,77.77 -194.19,77.77 -73.36,0 -137.36,-29.79 -181.43,-77.86 l -33.91,31.36 c 53.38,58.11 129.63,90.76 211.74,90.76 82.19,0 163.67,-32.65 226.51,-90.76"
         style="fill:#17282f;fill-opacity:1;fill-rule:nonzero;stroke:none"
         id="path68" /><path
         d="m 2029.01,1963.25 c -104.47,-28.58 -221.29,2.08 -305.86,80.21 -129.91,120.21 -146.02,318.03 -35.68,438.25 l 33.91,-31.36 c -44.16,-48.06 -68.46,-114.41 -62.49,-187.77 11.94,-146.63 140.53,-265.55 287.16,-265.55 23.74,0 46.61,3.12 68.05,8.92 l 14.91,-42.7"
         style="fill:#406fbf;fill-opacity:1;fill-rule:nonzero;stroke:none"
         id="path70" /><path
         d="m 1178.89,3530.08 h -72.22 v 8.65 h 72.22 v -8.65"
         style="fill:#406fbf;fill-opacity:1;fill-rule:nonzero;stroke:none"
         id="path72" /><path
         d="M 1036.67,3530.08 H 872.223 v 8.65 h 164.447 v -8.65"
         style="fill:#406fbf;fill-opacity:1;fill-rule:nonzero;stroke:none"
         id="path74" /><path
         d="M 1801.44,2742.68 H 900.684 c -57.164,0 -107.739,46.77 -112.391,103.93 l -45.09,553.86 c -4.656,57.16 38.305,103.94 95.469,103.94 h 900.748 c 57.17,0 107.74,-46.78 112.4,-103.94 l 45.09,-553.86 c 4.65,-57.16 -38.31,-103.93 -95.47,-103.93"
         style="fill:#ffffff;fill-opacity:1;fill-rule:nonzero;stroke:none"
         id="path76" /><path
         d="m 838.672,3500.08 c -26.359,0 -50.371,-10.31 -67.621,-29.03 -17.336,-18.79 -25.692,-43.73 -23.531,-70.23 l 45.085,-553.86 c 4.489,-55.11 52.969,-99.96 108.079,-99.96 h 900.756 c 26.35,0 50.37,10.3 67.62,29.02 17.33,18.8 25.69,43.75 23.53,70.24 l -45.09,553.86 c -4.49,55.11 -52.97,99.96 -108.08,99.96 z M 1801.44,2738.35 H 900.684 c -59.508,0 -111.868,48.41 -116.707,107.91 l -45.09,553.86 c -2.36,28.92 6.801,56.21 25.797,76.81 18.906,20.51 45.183,31.8 73.988,31.8 h 900.748 c 59.51,0 111.87,-48.41 116.72,-107.91 l 45.09,-553.86 c 2.35,-28.93 -6.81,-56.21 -25.81,-76.81 -18.9,-20.51 -45.18,-31.8 -73.98,-31.8"
         style="fill:#406fbf;fill-opacity:1;fill-rule:nonzero;stroke:none"
         id="path78" /><path
         d="m 824.664,3345.47 h 477.326 l -3.84,47.16 H 820.824 l 3.84,-47.16"
         style="fill:#dadbd8;fill-opacity:1;fill-rule:nonzero;stroke:none"
         id="path80" /><path
         d="m 1779.31,3345.47 h -477.32 l -3.84,47.16 h 477.32 l 3.84,-47.16"
         style="fill:#406fbf;fill-opacity:1;fill-rule:nonzero;stroke:none"
         id="path82" /><path
         d="m 834.656,3222.71 h 136.172 l -3.836,47.17 H 830.82 l 3.836,-47.17"
         style="fill:#dadbd8;fill-opacity:1;fill-rule:nonzero;stroke:none"
         id="path84" /><path
         d="M 1789.3,3222.71 H 970.828 l -3.836,47.17 h 818.468 l 3.84,-47.17"
         style="fill:#406fbf;fill-opacity:1;fill-rule:nonzero;stroke:none"
         id="path86" /><path
         d="m 844.652,3099.96 h 424.878 l -3.84,47.16 H 840.816 l 3.836,-47.16"
         style="fill:#dadbd8;fill-opacity:1;fill-rule:nonzero;stroke:none"
         id="path88" /><path
         d="m 1799.3,3099.96 h -529.77 l -3.84,47.16 h 529.77 l 3.84,-47.16"
         style="fill:#406fbf;fill-opacity:1;fill-rule:nonzero;stroke:none"
         id="path90" /><path
         d="m 854.648,2977.21 h 725.122 l -3.84,47.16 H 850.805 l 3.843,-47.16"
         style="fill:#dadbd8;fill-opacity:1;fill-rule:nonzero;stroke:none"
         id="path92" /><path
         d="m 1809.29,2977.21 h -229.52 l -3.84,47.16 h 229.52 l 3.84,-47.16"
         style="fill:#406fbf;fill-opacity:1;fill-rule:nonzero;stroke:none"
         id="path94" /><path
         d="m 864.641,2854.45 h 335.369 l -3.83,47.15 H 860.801 l 3.84,-47.15"
         style="fill:#dadbd8;fill-opacity:1;fill-rule:nonzero;stroke:none"
         id="path96" /><path
         d="m 1819.28,2854.45 h -619.27 l -3.83,47.15 h 619.26 l 3.84,-47.15"
         style="fill:#406fbf;fill-opacity:1;fill-rule:nonzero;stroke:none"
         id="path98" /><path
         d="m 3032.81,2742.68 h -900.75 c -57.16,0 -107.74,46.77 -112.4,103.93 l -45.08,553.86 c -4.66,57.16 38.3,103.94 95.46,103.94 h 900.76 c 57.16,0 107.74,-46.78 112.39,-103.94 l 45.09,-553.86 c 4.66,-57.16 -38.3,-103.93 -95.47,-103.93"
         style="fill:#ffffff;fill-opacity:1;fill-rule:nonzero;stroke:none"
         id="path100" /><path
         d="m 2070.04,3500.08 c -26.35,0 -50.36,-10.3 -67.61,-29.01 -17.34,-18.81 -25.7,-43.75 -23.54,-70.25 l 45.09,-553.86 c 4.49,-55.11 52.98,-99.96 108.08,-99.96 h 900.75 c 26.36,0 50.37,10.32 67.62,29.03 17.34,18.79 25.69,43.74 23.53,70.23 l -45.08,553.86 c -4.49,55.11 -52.97,99.96 -108.08,99.96 z m 962.77,-761.73 h -900.75 c -59.51,0 -111.86,48.41 -116.71,107.91 l -45.09,553.86 c -2.35,28.93 6.81,56.21 25.8,76.81 18.91,20.51 45.18,31.8 73.98,31.8 h 900.76 c 59.51,0 111.87,-48.41 116.71,-107.91 l 45.09,-553.86 c 2.36,-28.92 -6.8,-56.21 -25.8,-76.8 -18.9,-20.52 -45.18,-31.81 -73.99,-31.81"
         style="fill:#406fbf;fill-opacity:1;fill-rule:nonzero;stroke:none"
         id="path102" /><path
         d="m 2581.28,2854.45 h -15.89 l -43.82,538.18 h 15.9 l 43.81,-538.18"
         style="fill:#dadbd8;fill-opacity:1;fill-rule:nonzero;stroke:none"
         id="path104" /><path
         d="m 2605.29,3078.09 h -100.32 l -17.12,210.27 h 100.32 l 17.12,-210.27"
         style="fill:#406fbf;fill-opacity:1;fill-rule:nonzero;stroke:none"
         id="path106" /><path
         d="m 2383.85,2854.45 h -15.9 l -43.81,538.18 h 15.9 l 43.81,-538.18"
         style="fill:#dadbd8;fill-opacity:1;fill-rule:nonzero;stroke:none"
         id="path108" /><path
         d="m 2411.66,3031.38 h -100.32 l -15.01,184.32 h 100.32 l 15.01,-184.32"
         style="fill:#406fbf;fill-opacity:1;fill-rule:nonzero;stroke:none"
         id="path110" /><path
         d="m 2186.42,2854.45 h -15.9 l -43.82,538.18 h 15.9 l 43.82,-538.18"
         style="fill:#dadbd8;fill-opacity:1;fill-rule:nonzero;stroke:none"
         id="path112" /><path
         d="m 2201.88,3183.02 h -100.32 l -10.3,126.55 h 100.32 l 10.3,-126.55"
         style="fill:#17282f;fill-opacity:1;fill-rule:nonzero;stroke:none"
         id="path114" /><path
         d="m 2778.72,2854.45 h -15.9 l -43.81,538.18 h 15.9 l 43.81,-538.18"
         style="fill:#dadbd8;fill-opacity:1;fill-rule:nonzero;stroke:none"
         id="path116" /><path
         d="m 2812.44,2958.72 h -100.32 l -26.83,329.64 h 100.32 l 26.83,-329.64"
         style="fill:#17282f;fill-opacity:1;fill-rule:nonzero;stroke:none"
         id="path118" /><path
         d="m 2976.15,2854.45 h -15.9 l -43.81,538.18 h 15.9 l 43.81,-538.18"
         style="fill:#dadbd8;fill-opacity:1;fill-rule:nonzero;stroke:none"
         id="path120" /><path
         d="m 3013.09,2919.23 h -100.32 l -21.49,263.99 h 100.32 l 21.49,-263.99"
         style="fill:#406fbf;fill-opacity:1;fill-rule:nonzero;stroke:none"
         id="path122" /><path
         d="m 2068.89,1027.9 h -900.75 c -57.16,0 -107.74,46.77 -112.4,103.93 l -45.09,553.85 c -4.65,57.17 38.31,103.94 95.48,103.94 h 900.75 c 57.16,0 107.74,-46.77 112.39,-103.94 l 45.09,-553.85 c 4.66,-57.16 -38.31,-103.93 -95.47,-103.93"
         style="fill:#ffffff;fill-opacity:1;fill-rule:nonzero;stroke:none"
         id="path124" /><path
         d="m 1106.13,1785.29 c -26.36,0 -50.38,-10.31 -67.62,-29.01 -17.34,-18.81 -25.7,-43.75 -23.54,-70.24 l 45.09,-553.86 c 4.49,-55.11 52.98,-99.95 108.08,-99.95 h 900.75 c 26.36,0 50.38,10.31 67.62,29.02 17.34,18.8 25.69,43.74 23.53,70.23 l -45.08,553.85 c -4.49,55.12 -52.97,99.96 -108.08,99.96 z m 962.76,-761.71 h -900.75 c -59.51,0 -111.87,48.39 -116.71,107.9 l -45.09,553.85 c -2.36,28.94 6.8,56.21 25.8,76.82 18.9,20.51 45.18,31.8 73.99,31.8 h 900.75 c 59.51,0 111.87,-48.41 116.71,-107.91 l 45.09,-553.86 c 2.36,-28.93 -6.8,-56.2 -25.79,-76.81 -18.91,-20.51 -45.19,-31.79 -74,-31.79"
         style="fill:#406fbf;fill-opacity:1;fill-rule:nonzero;stroke:none"
         id="path126" /><path
         d="m 1227.99,1421.98 194.14,-224.3 222.63,343.4 137.68,-177.46 33.6,51.83 225.03,-269.72 -864.32,0.33 51.24,275.92"
         style="fill:#406fbf;fill-opacity:1;fill-rule:nonzero;stroke:none"
         id="path128" /><path
         d="m 1876.09,1408.06 -90.23,-193.22 -287.79,456.95 -135.52,-290.19 -43.42,68.96 -142.36,-304.83 864.27,0.43 -164.95,261.9"
         style="fill:#dadbd8;fill-opacity:1;fill-rule:nonzero;stroke:none"
         id="path130" /><path
         d="m 3728.8,2685.01 c 24.08,-45.21 44.79,-89.88 64.28,-136.42 19,-46.57 36.57,-93.87 50.29,-143.85 3.51,-12.41 6.54,-25.19 9.45,-38.04 1.15,-4.36 3.98,-18.28 3.96,-27.12 0.46,-9.82 -0.3,-18.67 -1.52,-27.13 -5.42,-33.25 -17.06,-58.73 -29.74,-82.81 -25.91,-47.67 -57.14,-87.17 -93.48,-124.47 -10.9,-11.19 -28.81,-11.43 -40,-0.53 -9.14,8.9 -10.97,22.46 -5.4,33.24 l 0.7,1.35 c 21.44,41.4 42.67,85.06 57.02,126.5 6.9,20.54 12.37,41.55 12.34,57.02 -0.12,3.69 -0.24,7.09 -0.79,9.44 -0.23,1.23 -0.46,2.34 -0.85,2.95 l -1.85,5.89 c -3.34,10.77 -6.75,21.54 -10.75,32.4 -15.15,43.42 -33.88,87.02 -53.32,130.27 -19.37,43.13 -40.22,86.97 -60.84,128.65 l -0.42,0.84 c -13.88,28.09 -2.37,62.11 25.71,76 27.54,13.61 60.83,2.72 75.21,-24.18"
         style="fill:#406fbf;fill-opacity:1;fill-rule:nonzero;stroke:none"
         id="path132" /><path
         d="m 3697.51,2143.49 -47.72,-15.03 56.17,-65.76 c 0,0 21.68,19.07 29.49,46.69 2.64,9.32 -1.22,19.29 -9.07,24.97 l -7.96,5.75 c -6.04,4.36 -13.8,5.62 -20.91,3.38"
         style="fill:#872f37;fill-opacity:1;fill-rule:nonzero;stroke:none"
         id="path134" /><path
         d="m 3584.04,2087.92 60.19,-47.76 61.73,22.54 -56.17,65.76 -65.75,-40.54"
         style="fill:#872f37;fill-opacity:1;fill-rule:nonzero;stroke:none"
         id="path136" /><path
         d="m 3378.51,3019.48 c -1.21,-5.91 -5.32,-10.07 -9.18,-9.28 -3.87,0.78 -6.03,6.22 -4.83,12.12 1.2,5.92 5.31,10.08 9.18,9.3 3.87,-0.79 6.03,-6.22 4.83,-12.14"
         style="fill:#17282f;fill-opacity:1;fill-rule:nonzero;stroke:none"
         id="path138" /><path
         d="m 3373.74,3009.3 c 0,0 -20.4,-31.4 -38.55,-44.85 8.48,-11.9 27.18,-11.06 27.18,-11.06 l 11.37,55.91"
         style="fill:#6b1317;fill-opacity:1;fill-rule:nonzero;stroke:none"
         id="path140" /><path
         d="m 3406.85,3047.93 2.4,0.95 c 1.44,1.33 1.53,3.56 0.2,5.01 -13.32,14.4 -29.47,11.84 -30.17,11.73 -1.93,-0.33 -3.23,-2.16 -2.9,-4.1 0.34,-1.92 2.19,-3.21 4.08,-2.89 0.53,0.08 13.16,1.93 23.78,-9.56 0.7,-0.76 1.65,-1.14 2.61,-1.14"
         style="fill:#17282f;fill-opacity:1;fill-rule:nonzero;stroke:none"
         id="path142" /><path
         d="m 3542.8,2911.81 c -10.73,-54.77 -17.21,-130.63 21.1,-167.17 0,0 -14.97,-55.54 -116.72,-55.54 -111.88,0 -53.82,48.74 -53.82,48.74 46.5,14.44 46.1,67.41 35.46,109.95 l 113.98,64.02"
         style="fill:#872f37;fill-opacity:1;fill-rule:nonzero;stroke:none"
         id="path144" /><path
         d="m 3373.74,2746.41 c 0,0 16.31,38.65 32.98,45.32 16.66,6.66 122.77,24.11 147.22,8.72 24.44,-15.39 40.95,-64.83 40.95,-64.83 l -221.15,10.79"
         style="fill:#406fbf;fill-opacity:1;fill-rule:nonzero;stroke:none"
         id="path146" /><path
         d="m 3474.01,200.34 c -1.25,0 -2.4,-0.121 -3.42,-0.399 -1.64,-0.453 -2.78,-1.261 -3.48,-2.48 -1.25,-2.211 -0.79,-3.289 -0.34,-3.922 3.48,-4.84 22.4,-4.949 36.32,-2.98 -6.94,3.562 -20.33,9.781 -29.08,9.781 z m 11.87,-14.508 c -9.61,0 -18.88,1.316 -21.99,5.637 -1.09,1.511 -1.95,4.082 0.15,7.75 1.17,2.051 3.06,3.453 5.61,4.14 12.46,3.391 38.62,-11.507 39.73,-12.16 l 0.86,-1.808 -1.4,-1.461 c -4.77,-0.961 -14.01,-2.098 -22.96,-2.098"
         style="fill:#406fbf;fill-opacity:1;fill-rule:nonzero;stroke:none"
         id="path148" /><path
         d="m 3490.23,218.238 -1.06,-0.058 c -3.19,-0.321 -3.4,-1.578 -3.46,-1.989 -0.82,-5.082 11.34,-17.8 20.55,-23.339 -0.96,5.89 -3.62,17.949 -9.87,23.089 -1.88,1.539 -3.91,2.297 -6.16,2.297 z m 18.27,-30.347 -0.73,0.168 c -9.03,4.05 -26.93,20.23 -25.56,28.703 0.32,1.98 1.73,4.457 6.6,4.949 3.64,0.371 6.92,-0.652 9.83,-3.039 9.52,-7.82 11.54,-27.981 11.62,-28.84 l -0.73,-1.602 -1.03,-0.339"
         style="fill:#406fbf;fill-opacity:1;fill-rule:nonzero;stroke:none"
         id="path150" /><path
         d="m 3590.79,189.672 h -74.84 l -7.45,173.34 h 74.85 l 7.44,-173.34"
         style="fill:#872f37;fill-opacity:1;fill-rule:nonzero;stroke:none"
         id="path152" /><path
         d="m 3516.45,198.34 h 81.73 c 3.06,0 5.71,-2.129 6.38,-5.121 l 14.78,-66.528 c 1.53,-6.89 -3.71,-13.429 -10.77,-13.312 -29.48,0.5 -72.09,2.23 -109.15,2.23 -43.34,0 -48.58,-2.371 -99.4,-2.371 -30.72,0 -39.25,31.071 -26.39,33.891 58.55,12.801 74.18,14.18 124.78,45.383 5.5,3.386 11.58,5.828 18.04,5.828"
         style="fill:#17282f;fill-opacity:1;fill-rule:nonzero;stroke:none"
         id="path154" /><path
         d="m 3697.92,2744.39 c 70.15,-16.09 116.43,-205.41 116.43,-205.41 L 3697.23,2451 c 0,0 -63.9,39.59 -86.91,129.18 -24.12,93.85 15.87,180.65 87.6,164.21"
         style="fill:#17282f;fill-opacity:1;fill-rule:nonzero;stroke:none"
         id="path156" /><path
         d="m 3697.26,2450.98 c 0,0 -0.01,0 -0.03,0.02 l 2.28,1.71 -2.25,-1.73"
         style="fill:#a7aaa9;fill-opacity:1;fill-rule:nonzero;stroke:none"
         id="path158" /><path
         d="m 3697.23,2451 c -0.77,0.48 -15.05,9.55 -32.32,28.24 1.61,28.79 3.83,58.3 6.77,88.25 18.46,-33.01 29.84,-72.32 31.8,-111.72 l -3.97,-3.06 -2.28,-1.71"
         style="fill:#111d23;fill-opacity:1;fill-rule:nonzero;stroke:none"
         id="path160" /><path
         d="m 4118.98,2040.11 -568.25,-227.1 -168.89,422.61 568.25,227.1 168.89,-422.61"
         style="fill:#406fbf;fill-opacity:1;fill-rule:nonzero;stroke:none"
         id="path162" /><path
         d="m 3790.72,1908.92 v 0 l 319.91,127.85 v 0 l -319.91,-127.85"
         style="fill:#ffffff;fill-opacity:1;fill-rule:nonzero;stroke:none"
         id="path164" /><path
         d="m 3745.55,1890.87 v 0 l 45.17,18.05 v 0 l -45.17,-18.05"
         style="fill:#f7f7f6;fill-opacity:1;fill-rule:nonzero;stroke:none"
         id="path166" /><path
         d="m 3726.91,1883.42 v 0 l 18.64,7.45 v 0 l -18.64,-7.45"
         style="fill:#fefefe;fill-opacity:1;fill-rule:nonzero;stroke:none"
         id="path168" /><path
         d="m 3726.91,1883.42 c -30.25,121.68 -52.41,210.16 -52.41,210.16 h -70.39 70.39 c -0.79,6.19 -1.82,15.28 -2.97,26.94 l 52.55,21.01 -15.01,37.57 -41.16,-16.44 c -0.65,8.6 -1.29,17.84 -1.9,27.62 l 33.28,13.3 -15.02,37.57 -20.53,-8.21 c -0.41,9 -0.77,18.32 -1.09,27.94 l 11.84,4.74 -12.81,32.05 c -0.3,15.93 -0.46,32.49 -0.45,49.6 l 280.51,112.11 168.89,-422.61 -319.91,-127.85 -45.17,-18.05 -18.64,-7.45 m 56.54,109.55 -53.01,-21.18 15.02,-37.58 53.01,21.19 -15.02,37.57 m 87.54,34.98 -53.02,-21.18 15.02,-37.58 53.01,21.19 -15.01,37.57 m -112.33,27.07 -53.01,-21.19 15.01,-37.57 53.02,21.18 -15.02,37.58 m 199.86,7.92 -53.02,-21.19 15.02,-37.58 53.01,21.19 -15.01,37.58 m -112.33,27.06 -53.01,-21.19 15.01,-37.57 53.02,21.18 -15.02,37.58 m 199.86,7.92 -53.01,-21.19 15.01,-37.58 53.01,21.19 -15.01,37.58 m -312.19,19.14 -53.01,-21.18 15.02,-37.58 53.01,21.18 -15.02,37.58 m 199.86,7.92 -53.01,-21.18 15.02,-37.58 53.01,21.18 -15.02,37.58 m -112.33,27.06 -53.01,-21.18 15.02,-37.58 53.01,21.18 -15.02,37.58 m 199.86,7.92 -53.01,-21.18 15.02,-37.58 53,21.18 -15.01,37.58 m -112.32,27.06 -53.02,-21.18 15.02,-37.58 53.01,21.19 -15.01,37.57 m -112.33,27.07 -53.01,-21.19 15.01,-37.58 53.02,21.19 -15.02,37.58 m 199.86,7.91 -53.02,-21.18 15.02,-37.58 53.01,21.19 -15.01,37.57 m -112.33,27.07 -53.01,-21.19 15.01,-37.57 53.02,21.18 -15.02,37.58 m -112.33,27.06 -53.01,-21.18 15.02,-37.58 53.01,21.19 -15.02,37.57 m 199.86,7.92 -53.01,-21.19 15.02,-37.57 53,21.19 -15.01,37.57 m -112.33,27.06 -53.01,-21.18 15.02,-37.58 53.01,21.19 -15.02,37.57 m -112.32,27.07 -53.02,-21.19 15.02,-37.57 53.01,21.19 -15.01,37.57 m 199.85,7.91 -53.01,-21.18 15.02,-37.58 53.01,21.19 -15.02,37.57 m -112.32,27.07 -53.01,-21.19 15.01,-37.57 53.01,21.19 -15.01,37.57 m 87.53,34.98 -53.01,-21.19 15.01,-37.57 53.01,21.19 -15.01,37.57"
         style="fill:#90b4e3;fill-opacity:1;fill-rule:nonzero;stroke:none"
         id="path170" /><path
         d="m 3662.65,2260.88 c -0.4,11.83 -0.73,24.11 -0.97,36.79 l 12.81,-32.05 -11.84,-4.74"
         style="fill:#658fd2;fill-opacity:1;fill-rule:nonzero;stroke:none"
         id="path172" /><path
         d="m 3709.01,2279.42 -15.02,37.57 53.02,21.19 15.01,-37.57 -53.01,-21.19"
         style="fill:#658fd2;fill-opacity:1;fill-rule:nonzero;stroke:none"
         id="path174" /><path
         d="m 3796.54,2314.4 -15.01,37.57 53.01,21.19 15.01,-37.57 -53.01,-21.19"
         style="fill:#658fd2;fill-opacity:1;fill-rule:nonzero;stroke:none"
         id="path176" /><path
         d="m 3884.07,2349.38 -15.01,37.57 53.01,21.19 15.01,-37.57 -53.01,-21.19"
         style="fill:#658fd2;fill-opacity:1;fill-rule:nonzero;stroke:none"
         id="path178" /><path
         d="m 3666.01,2190.28 c -0.82,13.23 -1.6,27.48 -2.27,42.66 l 20.53,8.21 15.02,-37.57 -33.28,-13.3"
         style="fill:#658fd2;fill-opacity:1;fill-rule:nonzero;stroke:none"
         id="path180" /><path
         d="m 3733.81,2217.37 -15.02,37.58 53.01,21.18 15.02,-37.57 -53.01,-21.19"
         style="fill:#658fd2;fill-opacity:1;fill-rule:nonzero;stroke:none"
         id="path182" /><path
         d="m 3821.34,2252.35 -15.02,37.58 53.01,21.18 15.02,-37.57 -53.01,-21.19"
         style="fill:#658fd2;fill-opacity:1;fill-rule:nonzero;stroke:none"
         id="path184" /><path
         d="m 3908.87,2287.33 -15.02,37.58 53.01,21.18 15.02,-37.57 -53.01,-21.19"
         style="fill:#658fd2;fill-opacity:1;fill-rule:nonzero;stroke:none"
         id="path186" /><path
         d="m 3671.53,2120.52 c -1.14,11.61 -2.39,25.76 -3.62,42.14 l 41.16,16.44 15.01,-37.57 -52.55,-21.01"
         style="fill:#658fd2;fill-opacity:1;fill-rule:nonzero;stroke:none"
         id="path188" /><path
         d="m 3758.6,2155.32 -15.01,37.58 53.01,21.19 15.02,-37.58 -53.02,-21.19"
         style="fill:#658fd2;fill-opacity:1;fill-rule:nonzero;stroke:none"
         id="path190" /><path
         d="m 3846.13,2190.31 -15.01,37.57 53.01,21.19 15.02,-37.58 -53.02,-21.18"
         style="fill:#658fd2;fill-opacity:1;fill-rule:nonzero;stroke:none"
         id="path192" /><path
         d="m 3933.67,2225.29 -15.02,37.57 53.01,21.19 15.01,-37.57 -53,-21.19"
         style="fill:#658fd2;fill-opacity:1;fill-rule:nonzero;stroke:none"
         id="path194" /><path
         d="m 3695.87,2058.3 -15.02,37.58 53.01,21.18 15.02,-37.58 -53.01,-21.18"
         style="fill:#658fd2;fill-opacity:1;fill-rule:nonzero;stroke:none"
         id="path196" /><path
         d="m 3783.4,2093.28 -15.02,37.58 53.01,21.18 15.02,-37.58 -53.01,-21.18"
         style="fill:#658fd2;fill-opacity:1;fill-rule:nonzero;stroke:none"
         id="path198" /><path
         d="m 3870.93,2128.26 -15.02,37.58 53.02,21.18 15.01,-37.57 -53.01,-21.19"
         style="fill:#658fd2;fill-opacity:1;fill-rule:nonzero;stroke:none"
         id="path200" /><path
         d="m 3958.46,2163.24 -15.02,37.58 53.02,21.18 15.01,-37.57 -53.01,-21.19"
         style="fill:#658fd2;fill-opacity:1;fill-rule:nonzero;stroke:none"
         id="path202" /><path
         d="m 3720.66,1996.26 -15.01,37.57 53.01,21.19 15.02,-37.58 -53.02,-21.18"
         style="fill:#658fd2;fill-opacity:1;fill-rule:nonzero;stroke:none"
         id="path204" /><path
         d="m 3808.19,2031.24 -15.01,37.57 53.01,21.19 15.02,-37.58 -53.02,-21.18"
         style="fill:#658fd2;fill-opacity:1;fill-rule:nonzero;stroke:none"
         id="path206" /><path
         d="m 3895.73,2066.22 -15.02,37.58 53.01,21.18 15.02,-37.58 -53.01,-21.18"
         style="fill:#658fd2;fill-opacity:1;fill-rule:nonzero;stroke:none"
         id="path208" /><path
         d="m 3983.26,2101.2 -15.02,37.58 53.01,21.18 15.01,-37.58 -53,-21.18"
         style="fill:#658fd2;fill-opacity:1;fill-rule:nonzero;stroke:none"
         id="path210" /><path
         d="m 3745.46,1934.21 -15.02,37.58 53.01,21.18 15.02,-37.57 -53.01,-21.19"
         style="fill:#658fd2;fill-opacity:1;fill-rule:nonzero;stroke:none"
         id="path212" /><path
         d="m 3832.99,1969.19 -15.02,37.58 53.02,21.18 15.01,-37.57 -53.01,-21.19"
         style="fill:#658fd2;fill-opacity:1;fill-rule:nonzero;stroke:none"
         id="path214" /><path
         d="m 3920.52,2004.17 -15.02,37.58 53.02,21.19 15.01,-37.58 -53.01,-21.19"
         style="fill:#658fd2;fill-opacity:1;fill-rule:nonzero;stroke:none"
         id="path216" /><path
         d="m 4008.05,2039.15 -15.01,37.58 53.01,21.19 15.01,-37.58 -53.01,-21.19"
         style="fill:#658fd2;fill-opacity:1;fill-rule:nonzero;stroke:none"
         id="path218" /><path
         d="m 3903.1,2328.6 c -3.25,8.14 0.7,17.37 8.84,20.62 8.13,3.25 17.36,-0.71 20.61,-8.85 3.25,-8.13 -0.7,-17.36 -8.84,-20.6 -8.13,-3.26 -17.36,0.7 -20.61,8.83"
         style="fill:#ffffff;fill-opacity:1;fill-rule:nonzero;stroke:none"
         id="path220" /><path
         d="m 3889.96,2107.49 c -3.26,8.14 0.7,17.36 8.83,20.62 8.14,3.25 17.37,-0.72 20.62,-8.85 3.25,-8.14 -0.71,-17.36 -8.84,-20.62 -8.14,-3.24 -17.37,0.72 -20.61,8.85"
         style="fill:#ffffff;fill-opacity:1;fill-rule:nonzero;stroke:none"
         id="path222" /><path
         d="m 3690.1,2099.57 c -3.25,8.14 0.71,17.36 8.84,20.62 8.14,3.25 17.36,-0.72 20.61,-8.84 3.25,-8.14 -0.71,-17.36 -8.84,-20.62 -8.13,-3.25 -17.36,0.71 -20.61,8.84"
         style="fill:#ffffff;fill-opacity:1;fill-rule:nonzero;stroke:none"
         id="path224" /><path
         d="m 3564.63,1905.52 c -3.25,8.13 0.71,17.36 8.84,20.61 8.13,3.26 17.36,-0.7 20.61,-8.83 3.25,-8.14 -0.71,-17.37 -8.84,-20.62 -8.13,-3.25 -17.36,0.7 -20.61,8.84"
         style="fill:#ffffff;fill-opacity:1;fill-rule:nonzero;stroke:none"
         id="path226" /><path
         d="m 3579.35,1905.53 c -1.09,0 -2.2,0.3 -3.19,0.95 -2.72,1.75 -3.5,5.4 -1.74,8.12 l 125.47,194.05 c 1.04,1.6 2.79,2.61 4.7,2.68 l 194.54,7.71 12.82,215.8 c 0.2,3.24 3.06,5.66 6.22,5.52 3.24,-0.19 5.71,-2.98 5.52,-6.22 l -13.14,-221.11 c -0.18,-3.02 -2.62,-5.4 -5.63,-5.52 l -196.81,-7.8 -123.82,-191.5 c -1.12,-1.73 -3.01,-2.68 -4.94,-2.68"
         style="fill:#ffffff;fill-opacity:1;fill-rule:nonzero;stroke:none"
         id="path228" /><path
         d="m 3254.61,2669.34 c -15.3,-80.86 -24.87,-246.92 19.55,-575.76 h 400.34 c -7.23,57.04 -35.86,361.24 23.42,650.81 0,0 -68.63,13.77 -134.02,16.92 -51.16,2.46 -125.21,4.1 -170.18,-0.01 -18.77,-1.71 -37.2,-4.42 -53.62,-7.32 -43.28,-7.66 -77.32,-41.45 -85.49,-84.64"
         style="fill:#17282f;fill-opacity:1;fill-rule:nonzero;stroke:none"
         id="path230" /><path
         d="m 3245.83,2373.02 c -3.89,65.31 -4.69,119.4 -3.5,164.14 -1.18,-44.73 -0.39,-98.83 3.5,-164.14"
         style="fill:#b6b8b6;fill-opacity:1;fill-rule:nonzero;stroke:none"
         id="path232" /><path
         d="m 3277.77,2093.61 h -3.6 c -14.93,110.57 -23.77,202.72 -28.34,279.41 -3.89,65.31 -4.68,119.41 -3.5,164.14 0.01,0.55 0.03,1.11 0.04,1.66 l 75.2,6 c 65.1,-90.9 5.3,-302.91 -39.8,-451.21"
         style="fill:#111d23;fill-opacity:1;fill-rule:nonzero;stroke:none"
         id="path234" /><path
         d="m 3587.22,273.609 h -0.03 l -3.84,89.352 h 0.04 l 3.83,-89.352 m -74.88,0 v 0 l -0.03,0.711 0.03,-0.711"
         style="fill:#c3c5c2;fill-opacity:1;fill-rule:nonzero;stroke:none"
         id="path236" /><path
         d="m 3587.19,273.609 h -74.85 l -0.03,0.711 -3.8,88.641 h 74.84 l 3.84,-89.352"
         style="fill:#682329;fill-opacity:1;fill-rule:nonzero;stroke:none"
         id="path238" /><path
         d="m 3578.38,2991.91 c -19.23,-71.74 -26.84,-114.72 -71.11,-144.55 -66.61,-44.88 -149.53,6.62 -152.13,82.67 -2.33,68.46 29.51,174.3 106.51,188.76 75.86,14.24 135.96,-55.13 116.73,-126.88"
         style="fill:#872f37;fill-opacity:1;fill-rule:nonzero;stroke:none"
         id="path240" /><path
         d="m 3410.39,2991.45 -38.89,-10.11 36.19,93.86 c -3.92,7.16 -14.23,39.78 -3.32,72.4 2.87,8.59 10.76,14.41 19.82,14.59 80.62,1.56 164.87,-43.68 207.35,-77.9 8.18,-6.59 10.18,-18.2 4.71,-27.17 -9.3,-15.23 -21.34,-26.87 -36.51,-42.3 -0.8,-26.28 -43.72,-145.03 -67.47,-158.37 -23.75,-13.33 -69.16,-7.91 -81.25,13.75 -12.08,21.67 -52.91,50.42 -40.63,121.25"
         style="fill:#17282f;fill-opacity:1;fill-rule:nonzero;stroke:none"
         id="path242" /><path
         d="m 3446.38,2989.96 c -4.37,-18.96 -16.3,-35.49 -28.98,-45.47 -19.07,-15.02 -34.01,-1.16 -33.22,20.92 0.7,19.86 11.48,51.62 32.8,58.08 21,6.37 34.4,-11.85 29.4,-33.53"
         style="fill:#872f37;fill-opacity:1;fill-rule:nonzero;stroke:none"
         id="path244" /><path
         d="m 4145.26,223.621 c -0.01,1.25 -0.14,2.41 -0.43,3.43 -0.45,1.629 -1.27,2.769 -2.5,3.461 -2.21,1.238 -3.3,0.769 -3.92,0.32 -4.82,-3.512 -4.81,-22.434 -2.75,-36.344 3.51,6.973 9.66,20.391 9.6,29.133 z m -14.44,-11.961 c -0.06,9.61 1.2,18.899 5.5,22.031 1.5,1.11 4.07,1.969 7.75,-0.101 2.06,-1.149 3.47,-3.031 4.18,-5.578 3.46,-12.442 -11.27,-38.692 -11.9,-39.813 l -1.82,-0.867 -1.46,1.387 c -0.99,4.769 -2.2,14 -2.25,22.941"
         style="fill:#406fbf;fill-opacity:1;fill-rule:nonzero;stroke:none"
         id="path246" /><path
         d="m 4163.26,207.52 -0.07,1.062 c -0.34,3.199 -1.59,3.387 -2.01,3.449 -5.08,0.789 -17.73,-11.441 -23.21,-20.703 5.88,1.004 17.93,3.742 23.02,10.031 1.53,1.879 2.28,3.911 2.27,6.161 z m -30.23,-18.45 0.15,0.731 c 4,9.058 20.07,27.058 28.54,25.738 1.99,-0.309 4.48,-1.699 5,-6.57 0.39,-3.637 -0.61,-6.93 -2.97,-9.848 -7.76,-9.57 -27.92,-11.723 -28.77,-11.801 l -1.61,0.719 -0.34,1.031"
         style="fill:#406fbf;fill-opacity:1;fill-rule:nonzero;stroke:none"
         id="path248" /><path
         d="m 4134.16,188.57 -73.04,-5.172 -41.03,174.731 73.04,5.172 41.03,-174.731"
         style="fill:#872f37;fill-opacity:1;fill-rule:nonzero;stroke:none"
         id="path250" /><path
         d="m 4133.92,205.352 -81.42,7.207 c -3.05,0.261 -5.88,-1.61 -6.8,-4.528 l -20.6,-64.972 c -2.13,-6.731 2.51,-13.707 9.55,-14.207 29.42,-2.102 72.02,-4.141 108.93,-7.403 43.16,-3.82 15.21,-3.719 65.83,-8.211 30.6,-2.699 41.84,27.492 29.28,31.434 -57.2,17.918 -67.56,30.289 -87.33,53.277 -4.21,4.903 -11.01,6.84 -17.44,7.403"
         style="fill:#17282f;fill-opacity:1;fill-rule:nonzero;stroke:none"
         id="path252" /><path
         d="m 4114.29,273.191 -10.87,46.309 0.03,0.012 10.88,-46.321 h -0.04"
         style="fill:#c3c5c2;fill-opacity:1;fill-rule:nonzero;stroke:none"
         id="path254" /><path
         d="m 4041.25,268.02 -8.44,35.972 70.61,15.508 10.87,-46.309 -73.04,-5.171"
         style="fill:#682329;fill-opacity:1;fill-rule:nonzero;stroke:none"
         id="path256" /><path
         d="m 3416.17,2093.58 c 0,0 172.17,-574.93 237.5,-788.34 71.53,-233.71 343.72,-1009.041 343.72,-1009.041 l 131.97,29.012 c 0,0 -186.44,666.148 -263.75,992.079 -59.39,250.35 -191.11,776.29 -191.11,776.29 h -258.33"
         style="fill:#406fbf;fill-opacity:1;fill-rule:nonzero;stroke:none"
         id="path258" /><path
         d="m 3974.21,337.012 12.99,-51.543 158.74,17.043 -0.73,47.179 -171,-12.679"
         style="fill:#17282f;fill-opacity:1;fill-rule:nonzero;stroke:none"
         id="path260" /><path
         d="m 3659,1287.72 c -1.81,6.17 -3.7,12.02 -5.36,17.55 -7.7,25.16 -16.88,55.35 -27.09,89.04 10.22,-33.71 19.41,-63.9 27.12,-89.07 1.66,-5.44 3.43,-11.17 5.31,-17.18 0.01,-0.11 0.02,-0.23 0.02,-0.34"
         style="fill:#a4a6a5;fill-opacity:1;fill-rule:nonzero;stroke:none"
         id="path262" /><path
         d="m 3658.98,1288.06 c -1.88,6.01 -3.65,11.74 -5.31,17.18 -7.71,25.17 -16.9,55.36 -27.12,89.07 -37.08,122.35 -87.73,290.82 -130.05,431.75 2.94,0.98 6.14,1.45 9.55,1.45 1.78,0 3.61,-0.13 5.49,-0.38 95.2,-12.55 133.15,-344.17 147.44,-539.07"
         style="fill:#2d5bb2;fill-opacity:1;fill-rule:nonzero;stroke:none"
         id="path264" /><path
         d="m 3274.16,2093.58 c 0,0 57.74,-559.93 82.62,-787.88 25.87,-237.1 123,-1014.79 123,-1014.79 h 126.79 c 0,0 -15.36,763.5 -20.48,996.67 -5.56,254.2 -48.78,806 -48.78,806 h -263.15"
         style="fill:#406fbf;fill-opacity:1;fill-rule:nonzero;stroke:none"
         id="path266" /><path
         d="m 3460.05,341.422 7.15,-52.641 h 154.25 l 4.17,46.981 -165.57,5.66"
         style="fill:#17282f;fill-opacity:1;fill-rule:nonzero;stroke:none"
         id="path268" /><path
         d="m 3082.25,1787.18 c 55.63,-88.23 29.19,-204.87 -59.04,-260.49 -88.25,-55.63 -204.89,-29.2 -260.51,59.02 -55.64,88.27 -29.2,204.9 59.05,260.53 88.23,55.63 204.86,29.19 260.5,-59.06 m -349.59,-220.4 c 66.08,-104.83 204.66,-136.21 309.48,-70.13 104.83,66.09 136.23,204.64 70.14,309.46 -66.08,104.83 -204.64,136.25 -309.47,70.17 -104.82,-66.08 -136.23,-204.68 -70.15,-309.5"
         style="fill:#17282f;fill-opacity:1;fill-rule:nonzero;stroke:none"
         id="path270" /><path
         d="m 3092.41,1653.59 c -36.03,69.95 -83.52,135.47 -140.83,193.35 -3.93,3.97 -7.89,7.89 -11.9,11.77 7,-0.71 14.03,-1.85 21.06,-3.44 91.42,-20.73 149.39,-110.29 131.67,-201.68"
         style="fill:#caddf3;fill-opacity:1;fill-rule:nonzero;stroke:none"
         id="path272" /><path
         d="m 2922.62,1513.33 c -12.67,0 -25.53,1.4 -38.4,4.32 -93.24,21.13 -151.69,113.85 -130.56,207.06 18.21,80.36 89.6,134.88 168.66,134.88 5.75,0 11.54,-0.29 17.36,-0.88 4.01,-3.88 7.97,-7.8 11.9,-11.77 57.31,-57.88 104.8,-123.4 140.83,-193.35 -0.35,-1.8 -0.73,-3.6 -1.14,-5.41 -18.21,-80.33 -89.6,-134.85 -168.65,-134.85"
         style="fill:#b2c6e5;fill-opacity:1;fill-rule:nonzero;stroke:none"
         id="path274" /><path
         d="m 3118.45,1833.33 21.03,-33.37 c 3.2,-5.07 1.68,-11.77 -3.39,-14.96 -5.07,-3.19 -11.77,-1.68 -14.96,3.39 l -21.04,33.37 c -3.19,5.07 -1.67,11.77 3.4,14.96 5.06,3.19 11.76,1.68 14.96,-3.39"
         style="fill:#17282f;fill-opacity:1;fill-rule:nonzero;stroke:none"
         id="path276" /><path
         d="m 3254.53,1928.17 c -24.31,-16.61 -48.44,-33.51 -72.27,-50.87 -23.82,-17.4 -47.44,-35.11 -70.37,-53.93 -5.14,-4.22 -6.99,-11.54 -4.04,-17.84 3.49,-7.46 12.37,-10.68 19.83,-7.19 26.86,12.58 53.02,26.24 78.98,40.24 25.95,14.02 51.61,28.5 77.07,43.28 21.67,12.6 43.16,25.47 64.55,38.53 6.15,3.76 8.03,11.86 4.19,17.96 l -17.33,27.48 c -3.85,6.1 -11.96,7.89 -18.01,3.96 -20.99,-13.67 -41.89,-27.5 -62.6,-41.62"
         style="fill:#17282f;fill-opacity:1;fill-rule:nonzero;stroke:none"
         id="path278" /><path
         d="m 3366.04,2641.33 c -12.24,-60.03 -25.38,-119.85 -39.01,-179.53 l -41.47,-178.56 c -13.42,-58.2 -24.92,-117.23 -35.44,-177.1 l -31.47,-180.04 -0.07,-0.41 c -2.69,-15.36 -17.31,-25.63 -32.67,-22.95 -13.39,2.35 -22.91,13.77 -23.35,26.84 -2.16,62.5 -1.2,124.31 2.3,186.51 3.72,62.03 9.46,124.59 19.67,186.83 9.74,61.19 20.7,121.67 32.42,182.1 11.68,60.4 24.39,120.56 38.23,180.44 7.05,30.53 37.52,49.55 68.04,42.5 30.02,-6.93 48.9,-36.62 42.82,-66.63"
         style="fill:#406fbf;fill-opacity:1;fill-rule:nonzero;stroke:none"
         id="path280" /><path
         d="m 3210.06,1942.35 c -5.06,5.36 -12.67,7.58 -19.84,5.87 l -16.26,-3.87 c -8.33,-1.99 -14.57,-8.91 -15.67,-17.41 l -4.72,-36.1 c -1.34,-10.34 0.86,-20.84 6.26,-29.76 l 22.32,-36.95 c 5.88,-7.77 15.73,-11.45 25.27,-9.42 l 23.27,4.93 c 14.59,3.1 23.29,18.14 18.69,32.33 l -6.09,18.82 c 0,0 -0.37,36.82 -33.23,71.56"
         style="fill:#872f37;fill-opacity:1;fill-rule:nonzero;stroke:none"
         id="path282" /><path
         d="m 3443.94,2676.04 c 36.39,-96.55 -89.48,-234.21 -89.48,-234.21 l -159.26,52.67 c 0,0 12.18,131.72 67.46,205.99 68.29,91.73 153.58,49.03 181.28,-24.45"
         style="fill:#17282f;fill-opacity:1;fill-rule:nonzero;stroke:none"
         id="path284" /></g></g></svg>
